<svg width="36" height="36" viewBox="0 0 36 36" fill="none" xmlns="http://www.w3.org/2000/svg">
<path d="M17.8191 0C7.99395 0 0 7.99395 0 17.8191C0 27.6442 7.99395 35.6381 17.8191 35.6381C27.6442 35.6381 35.6381 27.6442 35.6381 17.8191C35.6381 7.99395 27.6442 0 17.8191 0ZM17.8191 2.7414C26.1611 2.7414 32.8967 9.47709 32.8967 17.8191C32.8967 26.1611 26.1611 32.8967 17.8191 32.8967C9.47709 32.8967 2.7414 26.1611 2.7414 17.8191C2.7414 9.47709 9.47709 2.7414 17.8191 2.7414ZM12.6361 10.6657L10.6657 12.6361L15.8487 17.8191L10.6657 23.002L12.6361 24.9724L17.8191 19.7894L23.002 24.9724L24.9724 23.002L19.7894 17.8191L24.9724 12.6361L23.002 10.6657L17.8191 15.8487L12.6361 10.6657Z" fill="#FF0000"/>
</svg>
